<?xml version="1.0" standalone="no"?>
<!DOCTYPE svg PUBLIC "-//W3C//DTD SVG 20010904//EN"
 "http://www.w3.org/TR/2001/REC-SVG-20010904/DTD/svg10.dtd">
<svg version="1.0" xmlns="http://www.w3.org/2000/svg"
 width="600.000000pt" height="600.000000pt" viewBox="0 0 600.000000 600.000000"
 preserveAspectRatio="xMidYMid meet">
<metadata>
Created by potrace 1.14, written by Peter Selinger 2001-2017
</metadata>
<g transform="translate(0.000000,600.000000) scale(0.100000,-0.100000)"
fill="#000000" stroke="none">
<path d="M2241 5142 c-104 -17 -241 -57 -318 -92 -36 -17 -66 -30 -68 -30 -2
0 -39 -23 -82 -52 -128 -85 -240 -207 -298 -327 -32 -66 -37 -71 -67 -71 -55
-1 -109 -11 -198 -37 -47 -14 -95 -28 -107 -30 -13 -3 -23 -10 -23 -15 0 -5
-4 -7 -9 -4 -5 3 -11 -1 -15 -9 -3 -10 16 -33 58 -68 75 -61 141 -99 250 -141
l78 -31 18 -55 c20 -66 53 -132 74 -149 9 -8 16 -18 16 -23 0 -5 33 -43 74
-85 99 -100 103 -125 56 -333 -5 -25 -12 -56 -14 -70 -2 -14 -9 -46 -15 -73
-6 -26 -14 -64 -17 -85 -3 -20 -8 -50 -11 -67 -11 -65 -10 -264 1 -337 7 -43
10 -78 8 -78 -2 0 0 -6 5 -12 6 -7 16 -35 23 -63 35 -133 118 -282 246 -441
158 -196 369 -358 590 -453 l62 -27 -47 -70 c-25 -39 -67 -104 -93 -145 -26
-41 -75 -118 -110 -171 -35 -53 -68 -105 -74 -114 -9 -15 -30 -18 -135 -21
-68 -1 -130 -5 -136 -8 -7 -2 -13 0 -13 5 0 5 -6 7 -14 4 -7 -3 -38 -7 -67 -9
-73 -4 -71 -4 -65 -13 3 -5 70 -8 148 -7 146 2 139 -6 -17 -20 -44 -4 -89 -9
-100 -11 -11 -3 -40 -7 -65 -9 -87 -8 -145 -15 -167 -20 -33 -8 -29 -28 5 -21
25 5 50 8 182 22 84 9 145 16 243 30 47 6 42 -10 -5 -21 -18 -4 -37 -9 -43
-11 -5 -1 -19 -5 -30 -8 -11 -2 -47 -13 -80 -24 -33 -11 -86 -28 -117 -37 -32
-10 -58 -22 -58 -26 0 -14 20 -11 105 17 44 14 85 27 90 28 6 2 17 5 25 8 8 3
62 20 120 38 58 17 112 34 120 37 44 17 79 18 343 10 117 -4 157 -3 157 6 0 8
-22 12 -63 13 -274 5 -347 10 -347 22 0 7 30 58 67 115 37 56 90 138 118 182
29 44 72 112 98 151 l46 72 58 -20 c71 -23 128 -37 223 -53 64 -12 75 -13 175
-20 100 -7 111 -11 94 -31 -6 -8 -9 -14 -6 -14 3 0 -12 -51 -34 -112 -35 -98
-68 -195 -75 -220 -1 -5 -3 -10 -4 -13 -1 -3 -3 -8 -4 -12 -5 -24 -30 -89 -36
-98 -5 -5 -9 -14 -10 -20 -2 -5 -4 -14 -6 -20 -2 -5 -7 -26 -12 -45 l-8 -35
-253 -2 c-140 -1 -256 -5 -259 -8 -14 -13 16 -16 154 -16 146 1 184 -5 88 -13
-27 -3 -69 -7 -94 -11 -25 -3 -63 -7 -85 -10 -22 -2 -65 -8 -95 -11 -90 -11
-94 -11 -127 -13 -23 -1 -33 -6 -33 -17 0 -10 6 -14 18 -10 9 2 48 7 85 11 37
3 76 8 85 10 9 1 46 6 82 10 82 8 130 14 177 20 110 13 144 15 138 5 -3 -5
-11 -10 -16 -10 -5 0 -26 -7 -47 -16 -20 -10 -41 -18 -47 -20 -10 -2 -127 -51
-186 -77 -19 -8 -59 -25 -89 -37 -57 -23 -77 -36 -69 -45 3 -2 48 13 100 34
52 22 177 73 279 115 102 42 192 80 200 85 17 9 52 7 295 -14 154 -14 195 -15
195 -6 0 13 3 12 -70 17 -62 5 -100 8 -215 18 -44 5 -102 9 -128 11 -27 2 -51
6 -53 8 -5 5 109 357 125 387 4 8 22 61 40 117 l32 101 42 1 c49 0 175 9 232
16 73 9 176 27 235 40 14 4 36 8 50 11 14 2 48 9 75 14 28 5 66 12 85 14 19 3
46 7 60 10 44 10 183 19 260 18 100 -2 168 -18 175 -43 11 -34 189 -294 236
-344 81 -87 113 -99 319 -119 25 -3 66 -9 91 -15 25 -6 68 -13 95 -15 27 -3
73 -10 102 -16 29 -5 68 -7 85 -5 18 3 46 7 62 9 17 3 41 7 55 10 14 2 46 7
72 11 62 7 76 13 118 46 52 40 82 106 79 174 -1 31 -6 58 -11 61 -4 3 -8 14
-8 25 0 10 -4 19 -10 19 -5 0 -10 5 -10 12 0 32 -142 189 -275 303 -32 28 -64
56 -71 63 -7 6 -17 12 -23 12 -6 0 -11 4 -11 8 0 5 -56 53 -124 108 -69 54
-123 100 -121 102 2 2 21 5 42 7 72 5 138 16 160 27 32 16 39 56 14 82 -12 12
-21 31 -21 42 0 18 -10 42 -41 93 -28 48 -151 176 -272 283 -39 35 -75 68 -81
73 -12 11 -168 141 -231 192 -22 18 -96 76 -164 128 -68 53 -133 108 -145 123
-11 15 -24 29 -28 30 -5 2 -8 8 -8 14 0 35 -320 379 -529 568 -45 41 -97 89
-115 105 -17 17 -47 42 -66 56 -19 15 -44 35 -55 45 -11 11 -38 32 -60 48 -72
52 -161 153 -193 218 -47 96 -88 217 -106 313 -1 6 -5 16 -9 23 -5 6 -5 12 -2
12 6 0 -40 83 -60 108 -18 22 -91 96 -114 115 -65 52 -220 115 -326 132 -79
13 -291 11 -374 -3z m-121 -3802 c0 -5 -5 -10 -11 -10 -5 0 -7 5 -4 10 3 6 8
10 11 10 2 0 4 -4 4 -10z"/>
</g>
</svg>
